<svg width="900" height="600" viewBox="0 0 900 600" fill="none" xmlns="http://www.w3.org/2000/svg">
<g id="polygon-scatter-haikei 1">
<path id="Vector" d="M900 0H0V600H900V0Z" fill="#001829"/>
<g id="Group">
<g id="Group_2">
<path id="Vector_2" d="M414 227L448.6 247V287L414 307L379.4 287V247L414 227Z" stroke="#297EA6" stroke-width="2"/>
</g>
<g id="Group_3">
<path id="Vector_3" d="M656 305L701.9 331.5V384.5L656 411L610.1 384.5V331.5L656 305Z" stroke="#297EA6" stroke-width="2"/>
</g>
<g id="Group_4">
<path id="Vector_4" d="M426 79L463.2 100.5V143.5L426 165L388.8 143.5V100.5L426 79Z" stroke="#297EA6" stroke-width="2"/>
</g>
<g id="Group_5">
<path id="Vector_5" d="M571 466L606.5 486.5V527.5L571 548L535.5 527.5V486.5L571 466Z" stroke="#297EA6" stroke-width="2"/>
</g>
<g id="Group_6">
<path id="Vector_6" d="M421 477L460 499.5V544.5L421 567L382 544.5V499.5L421 477Z" stroke="#297EA6" stroke-width="2"/>
</g>
<g id="Group_7">
<path id="Vector_7" d="M213 360L259.8 387V441L213 468L166.2 441V387L213 360Z" stroke="#297EA6" stroke-width="2"/>
</g>
<g id="Group_8">
<path id="Vector_8" d="M138 207L175.2 228.5V271.5L138 293L100.8 271.5V228.5L138 207Z" stroke="#297EA6" stroke-width="2"/>
</g>
<g id="bigPolygon">
<g id="Group_9">
<path id="Vector_9" d="M585 146.3L641.9 179.2V244.8L585 277.7L528.1 244.8V179.2L585 146.3Z" stroke="#297EA6" stroke-width="2"/>
</g>
<g id="Group_10">
<path id="Vector_10" d="M273 131L321.5 159V215L273 243L224.5 215V159L273 131Z" stroke="#297EA6" stroke-width="2"/>
</g>
<g id="Group_11">
<path id="Vector_11" d="M802 368L852.2 397V455L802 484L751.8 455V397L802 368Z" stroke="#297EA6" stroke-width="2"/>
</g>
<g id="Group_12">
<path id="Vector_12" d="M76 337L131.4 369V433L76 465L20.6 433V369L76 337Z" stroke="#297EA6" stroke-width="2"/>
</g>
<g id="Group_13">
<path id="Vector_13" d="M667 10L722.4 42V106L667 138L611.6 106V42L667 10Z" stroke="#297EA6" stroke-width="2"/>
</g>
<g id="Group_14">
<path id="Vector_14" d="M523 324L573.2 353V411L523 440L472.8 411V353L523 324Z" stroke="#297EA6" stroke-width="2"/>
</g>
</g>
<g id="Group_15">
<path id="Vector_15" d="M125 481L167.4 505.5V554.5L125 579L82.6 554.5V505.5L125 481Z" stroke="#297EA6" stroke-width="2"/>
</g>
<g id="SmallPolygon">
<g id="Group_16">
<path id="Vector_16" d="M799 148L824.1 162.5V191.5L799 206L773.9 191.5V162.5L799 148Z" stroke="#297EA6" stroke-width="2"/>
</g>
<g id="Group_17">
<path id="Vector_17" d="M349 385L371.5 398V424L349 437L326.5 424V398L349 385Z" stroke="#297EA6" stroke-width="2"/>
</g>
<g id="Group_18">
<path id="Vector_18" d="M68 87L90.5 100V126L68 139L45.5 126V100L68 87Z" stroke="#297EA6" stroke-width="2"/>
</g>
<g id="Group_19">
<path id="Vector_19" d="M289 504L310.7 516.5V541.5L289 554L267.3 541.5V516.5L289 504Z" stroke="#297EA6" stroke-width="2"/>
</g>
<g id="Group_20">
<path id="Vector_20" d="M701 499L726.1 513.5V542.5L701 557L675.9 542.5V513.5L701 499Z" stroke="#297EA6" stroke-width="2"/>
</g>
</g>
</g>
</g>
</svg>
