<svg width="960" height="540" viewBox="0 0 960 540" fill="none" xmlns="http://www.w3.org/2000/svg">
<g id="polygrid 1" clip-path="url(#clip0_4_4)">
<g id="Group">
<path id="Vector" d="M442.7 300L350 306L439.7 385L442.7 300Z" fill="#277297" stroke="#277297" stroke-linejoin="bevel"/>
<path id="Vector_2" d="M350 306L401.7 431L439.7 385L350 306Z" fill="#19435D" stroke="#19435D" stroke-linejoin="bevel"/>
<path id="Vector_3" d="M350 306L304 323L401.7 431L350 306Z" fill="#00101C" stroke="#00101C" stroke-linejoin="bevel"/>
<path id="Vector_4" d="M304 323L284 420L401.7 431L304 323Z" fill="#15384F" stroke="#15384F" stroke-linejoin="bevel"/>
<path id="Vector_5" d="M566.3 329L535.3 270L442.7 300L566.3 329Z" fill="#297EA6" stroke="#297EA6" stroke-linejoin="bevel"/>
<path id="Vector_6" d="M549.3 459L566.3 329L439.7 385L549.3 459Z" fill="#277297" stroke="#277297" stroke-linejoin="bevel"/>
<path id="Vector_7" d="M350 306L238.3 272L304 323L350 306Z" fill="#15384F" stroke="#15384F" stroke-linejoin="bevel"/>
<path id="Vector_8" d="M231.3 388L246.3 423L284 420L231.3 388Z" fill="#15384F" stroke="#15384F" stroke-linejoin="bevel"/>
<path id="Vector_9" d="M309 540H436.7L401.7 431L309 540Z" fill="#297EA6" stroke="#297EA6" stroke-linejoin="bevel"/>
<path id="Vector_10" d="M238.3 272L231.3 388L304 323L238.3 272Z" fill="#00101C" stroke="#00101C" stroke-linejoin="bevel"/>
<path id="Vector_11" d="M331 186L238.3 272L350 306L331 186Z" fill="#205A7A" stroke="#205A7A" stroke-linejoin="bevel"/>
<path id="Vector_12" d="M436.7 540L549.3 459L401.7 431L436.7 540Z" fill="#246688" stroke="#246688" stroke-linejoin="bevel"/>
<path id="Vector_13" d="M401.7 431L549.3 459L439.7 385L401.7 431Z" fill="#1D4E6B" stroke="#1D4E6B" stroke-linejoin="bevel"/>
<path id="Vector_14" d="M246.3 423L309 540L284 420L246.3 423Z" fill="#205A7A" stroke="#205A7A" stroke-linejoin="bevel"/>
<path id="Vector_15" d="M614 424L625 354L566.3 329L614 424Z" fill="#297EA6" stroke="#297EA6" stroke-linejoin="bevel"/>
<path id="Vector_16" d="M535.3 270L532.3 142L448.7 149L535.3 270Z" fill="#00101C" stroke="#00101C" stroke-linejoin="bevel"/>
<path id="Vector_17" d="M675 540L614 424L549.3 459L675 540Z" fill="#205A7A" stroke="#205A7A" stroke-linejoin="bevel"/>
<path id="Vector_18" d="M549.3 459L614 424L566.3 329L549.3 459Z" fill="#277297" stroke="#277297" stroke-linejoin="bevel"/>
<path id="Vector_19" d="M448.7 149L298 121L331 186L448.7 149Z" fill="#19435D" stroke="#19435D" stroke-linejoin="bevel"/>
<path id="Vector_20" d="M331 186L175.3 196L238.3 272L331 186Z" fill="#297EA6" stroke="#297EA6" stroke-linejoin="bevel"/>
<path id="Vector_21" d="M448.7 66L298 121L448.7 149V66Z" fill="#205A7A" stroke="#205A7A" stroke-linejoin="bevel"/>
<path id="Vector_22" d="M532.3 142L509.3 125L448.7 149L532.3 142Z" fill="#297EA6" stroke="#297EA6" stroke-linejoin="bevel"/>
<path id="Vector_23" d="M436.7 540H549.3V459L436.7 540Z" fill="#15384F" stroke="#15384F" stroke-linejoin="bevel"/>
<path id="Vector_24" d="M298 121L175.3 196L331 186L298 121Z" fill="#081A28" stroke="#081A28" stroke-linejoin="bevel"/>
<path id="Vector_25" d="M238.3 272L103.7 350L231.3 388L238.3 272Z" fill="#205A7A" stroke="#205A7A" stroke-linejoin="bevel"/>
<path id="Vector_26" d="M625 354L644 236L566.3 329L625 354Z" fill="#205A7A" stroke="#205A7A" stroke-linejoin="bevel"/>
<path id="Vector_27" d="M728.7 371L644 236L625 354L728.7 371Z" fill="#15384F" stroke="#15384F" stroke-linejoin="bevel"/>
<path id="Vector_28" d="M417.7 0L448.7 66L495.3 0H417.7Z" fill="#19435D" stroke="#19435D" stroke-linejoin="bevel"/>
<path id="Vector_29" d="M246.3 423L190.3 540H309L246.3 423Z" fill="#297EA6" stroke="#297EA6" stroke-linejoin="bevel"/>
<path id="Vector_30" d="M129.7 486L190.3 540L246.3 423L129.7 486Z" fill="#0C2435" stroke="#0C2435" stroke-linejoin="bevel"/>
<path id="Vector_31" d="M129.7 486L246.3 423L231.3 388L129.7 486Z" fill="#15384F" stroke="#15384F" stroke-linejoin="bevel"/>
<path id="Vector_32" d="M644 236L648 174L532.3 142L644 236Z" fill="#00101C" stroke="#00101C" stroke-linejoin="bevel"/>
<path id="Vector_33" d="M709.7 479L728.7 371L614 424L709.7 479Z" fill="#00101C" stroke="#00101C" stroke-linejoin="bevel"/>
<path id="Vector_34" d="M614 424L728.7 371L625 354L614 424Z" fill="#15384F" stroke="#15384F" stroke-linejoin="bevel"/>
<path id="Vector_35" d="M644 236L717.7 165L648 174L644 236Z" fill="#0C2435" stroke="#0C2435" stroke-linejoin="bevel"/>
<path id="Vector_36" d="M175.3 196L71.7 284L238.3 272L175.3 196Z" fill="#205A7A" stroke="#205A7A" stroke-linejoin="bevel"/>
<path id="Vector_37" d="M0 540H123.7L129.7 486L0 540Z" fill="#0C2435" stroke="#0C2435" stroke-linejoin="bevel"/>
<path id="Vector_38" d="M331 0L229.3 52L298 121L331 0Z" fill="#1D4E6B" stroke="#1D4E6B" stroke-linejoin="bevel"/>
<path id="Vector_39" d="M142.7 120L107.7 173L175.3 196L142.7 120Z" fill="#297EA6" stroke="#297EA6" stroke-linejoin="bevel"/>
<path id="Vector_40" d="M229.3 52L142.7 120L298 121L229.3 52Z" fill="#205A7A" stroke="#205A7A" stroke-linejoin="bevel"/>
<path id="Vector_41" d="M0 398L129.7 486L103.7 350L0 398Z" fill="#277297" stroke="#277297" stroke-linejoin="bevel"/>
<path id="Vector_42" d="M129.7 486L123.7 540H190.3L129.7 486Z" fill="#1D4E6B" stroke="#1D4E6B" stroke-linejoin="bevel"/>
<path id="Vector_43" d="M675 540L709.7 479L614 424L675 540Z" fill="#277297" stroke="#277297" stroke-linejoin="bevel"/>
<path id="Vector_44" d="M495.3 0L448.7 66L509.3 125L495.3 0Z" fill="#081A28" stroke="#081A28" stroke-linejoin="bevel"/>
<path id="Vector_45" d="M417.7 0H331L448.7 66L417.7 0Z" fill="#297EA6" stroke="#297EA6" stroke-linejoin="bevel"/>
<path id="Vector_46" d="M767.7 271L717.7 165L644 236L767.7 271Z" fill="#15384F" stroke="#15384F" stroke-linejoin="bevel"/>
<path id="Vector_47" d="M648 174L659 60L532.3 142L648 174Z" fill="#297EA6" stroke="#297EA6" stroke-linejoin="bevel"/>
<path id="Vector_48" d="M675 540H713.7L709.7 479L675 540Z" fill="#15384F" stroke="#15384F" stroke-linejoin="bevel"/>
<path id="Vector_49" d="M838.3 460L831.3 360L728.7 371L838.3 460Z" fill="#0C2435" stroke="#0C2435" stroke-linejoin="bevel"/>
<path id="Vector_50" d="M831.3 360L767.7 271L728.7 371L831.3 360Z" fill="#19435D" stroke="#19435D" stroke-linejoin="bevel"/>
<path id="Vector_51" d="M717.7 165L659 60L648 174L717.7 165Z" fill="#00101C" stroke="#00101C" stroke-linejoin="bevel"/>
<path id="Vector_52" d="M229.3 52L197.3 0L142.7 120L229.3 52Z" fill="#297EA6" stroke="#297EA6" stroke-linejoin="bevel"/>
<path id="Vector_53" d="M0 201L71.7 284L107.7 173L0 201Z" fill="#246688" stroke="#246688" stroke-linejoin="bevel"/>
<path id="Vector_54" d="M71.7 284L0 398L103.7 350L71.7 284Z" fill="#205A7A" stroke="#205A7A" stroke-linejoin="bevel"/>
<path id="Vector_55" d="M0 280V398L71.7 284L0 280Z" fill="#246688" stroke="#246688" stroke-linejoin="bevel"/>
<path id="Vector_56" d="M0 201L107.7 173L0 125V201Z" fill="#246688" stroke="#246688" stroke-linejoin="bevel"/>
<path id="Vector_57" d="M0 398V462L129.7 486L0 398Z" fill="#15384F" stroke="#15384F" stroke-linejoin="bevel"/>
<path id="Vector_58" d="M773.7 102L659 60L717.7 165L773.7 102Z" fill="#297EA6" stroke="#297EA6" stroke-linejoin="bevel"/>
<path id="Vector_59" d="M742.7 0H648L659 60L742.7 0Z" fill="#081A28" stroke="#081A28" stroke-linejoin="bevel"/>
<path id="Vector_60" d="M659 60L648 0H495.3L659 60Z" fill="#297EA6" stroke="#297EA6" stroke-linejoin="bevel"/>
<path id="Vector_61" d="M0 125L107.7 173L142.7 120L0 125Z" fill="#1D4E6B" stroke="#1D4E6B" stroke-linejoin="bevel"/>
<path id="Vector_62" d="M838.3 460L728.7 371L709.7 479L838.3 460Z" fill="#19435D" stroke="#19435D" stroke-linejoin="bevel"/>
<path id="Vector_63" d="M845.3 207L773.7 102L717.7 165L845.3 207Z" fill="#277297" stroke="#277297" stroke-linejoin="bevel"/>
<path id="Vector_64" d="M845.3 207L717.7 165L767.7 271L845.3 207Z" fill="#00101C" stroke="#00101C" stroke-linejoin="bevel"/>
<path id="Vector_65" d="M0 462V540L129.7 486L0 462Z" fill="#246688" stroke="#246688" stroke-linejoin="bevel"/>
<path id="Vector_66" d="M197.3 0H109.7L142.7 120L197.3 0Z" fill="#00101C" stroke="#00101C" stroke-linejoin="bevel"/>
<path id="Vector_67" d="M109.7 0L0 125L142.7 120L109.7 0Z" fill="#277297" stroke="#277297" stroke-linejoin="bevel"/>
<path id="Vector_68" d="M713.7 540L838.3 460L709.7 479L713.7 540Z" fill="#19435D" stroke="#19435D" stroke-linejoin="bevel"/>
<path id="Vector_69" d="M960 332L860.3 303L831.3 360L960 332Z" fill="#297EA6" stroke="#297EA6" stroke-linejoin="bevel"/>
<path id="Vector_70" d="M831.3 360L860.3 303L767.7 271L831.3 360Z" fill="#0C2435" stroke="#0C2435" stroke-linejoin="bevel"/>
<path id="Vector_71" d="M860.3 303L845.3 207L767.7 271L860.3 303Z" fill="#081A28" stroke="#081A28" stroke-linejoin="bevel"/>
<path id="Vector_72" d="M845.3 0H742.7L773.7 102L845.3 0Z" fill="#1D4E6B" stroke="#1D4E6B" stroke-linejoin="bevel"/>
<path id="Vector_73" d="M773.7 102L742.7 0L659 60L773.7 102Z" fill="#19435D" stroke="#19435D" stroke-linejoin="bevel"/>
<path id="Vector_74" d="M960 458V332L831.3 360L960 458Z" fill="#277297" stroke="#277297" stroke-linejoin="bevel"/>
<path id="Vector_75" d="M109.7 0H0V125L109.7 0Z" fill="#1D4E6B" stroke="#1D4E6B" stroke-linejoin="bevel"/>
<path id="Vector_76" d="M960 184L880.3 57L845.3 207L960 184Z" fill="#00101C" stroke="#00101C" stroke-linejoin="bevel"/>
<path id="Vector_77" d="M880.3 57L845.3 0L773.7 102L880.3 57Z" fill="#277297" stroke="#277297" stroke-linejoin="bevel"/>
<path id="Vector_78" d="M960 332V295L860.3 303L960 332Z" fill="#246688" stroke="#246688" stroke-linejoin="bevel"/>
<path id="Vector_79" d="M878.3 540L960 458L838.3 460L878.3 540Z" fill="#19435D" stroke="#19435D" stroke-linejoin="bevel"/>
<path id="Vector_80" d="M960 295V184L845.3 207L960 295Z" fill="#15384F" stroke="#15384F" stroke-linejoin="bevel"/>
<g id="animate2">
<path id="Vector_81" d="M566.3 329L442.7 300L439.7 385L566.3 329Z" fill="#277297" stroke="#277297" stroke-linejoin="bevel"/>
<path id="Vector_82" d="M448.7 149L331 186L442.7 300L448.7 149Z" fill="#297EA6" stroke="#297EA6" stroke-linejoin="bevel"/>
<path id="Vector_83" d="M535.3 270L448.7 149L442.7 300L535.3 270Z" fill="#15384F" stroke="#15384F" stroke-linejoin="bevel"/>
<path id="Vector_84" d="M644 236L532.3 142L535.3 270L644 236Z" fill="#0C2435" stroke="#0C2435" stroke-linejoin="bevel"/>
<path id="Vector_85" d="M495.3 0L509.3 125L659 60L495.3 0Z" fill="#15384F" stroke="#15384F" stroke-linejoin="bevel"/>
<path id="Vector_86" d="M71.7 284L103.7 350L238.3 272L71.7 284Z" fill="#1D4E6B" stroke="#1D4E6B" stroke-linejoin="bevel"/>
<path id="Vector_87" d="M103.7 350L129.7 486L231.3 388L103.7 350Z" fill="#246688" stroke="#246688" stroke-linejoin="bevel"/>
<path id="Vector_88" d="M298 121L142.7 120L175.3 196L298 121Z" fill="#1D4E6B" stroke="#1D4E6B" stroke-linejoin="bevel"/>
<path id="Vector_89" d="M549.3 540H675L549.3 459V540Z" fill="#0C2435" stroke="#0C2435" stroke-linejoin="bevel"/>
<path id="Vector_90" d="M448.7 66L331 0L298 121L448.7 66Z" fill="#15384F" stroke="#15384F" stroke-linejoin="bevel"/>
<path id="Vector_91" d="M728.7 371L767.7 271L644 236L728.7 371Z" fill="#0C2435" stroke="#0C2435" stroke-linejoin="bevel"/>
<path id="Vector_92" d="M713.7 540H878.3L838.3 460L713.7 540Z" fill="#15384F" stroke="#15384F" stroke-linejoin="bevel"/>
<path id="Vector_93" d="M845.3 207L880.3 57L773.7 102L845.3 207Z" fill="#1D4E6B" stroke="#1D4E6B" stroke-linejoin="bevel"/>
<path id="Vector_94" d="M960 295L845.3 207L860.3 303L960 295Z" fill="#081A28" stroke="#081A28" stroke-linejoin="bevel"/>
<path id="Vector_95" d="M880.3 57L960 0H845.3L880.3 57Z" fill="#081A28" stroke="#081A28" stroke-linejoin="bevel"/>
</g>
<path id="Vector_96" d="M878.3 540H960V458L878.3 540Z" fill="#19435D" stroke="#19435D" stroke-linejoin="bevel"/>
<path id="Vector_97" d="M960 184V56L880.3 57L960 184Z" fill="#246688" stroke="#246688" stroke-linejoin="bevel"/>
<path id="Vector_98" d="M960 56V0L880.3 57L960 56Z" fill="#246688" stroke="#246688" stroke-linejoin="bevel"/>
<g id="animate">
<path id="Vector_99" d="M442.7 300L331 186L350 306L442.7 300Z" fill="white" stroke="white" stroke-linejoin="bevel"/>
<path id="Vector_100" d="M231.3 388L284 420L304 323L231.3 388Z" fill="white" stroke="white" stroke-linejoin="bevel"/>
<path id="Vector_101" d="M309 540L401.7 431L284 420L309 540Z" fill="white" stroke="white" stroke-linejoin="bevel"/>
<path id="Vector_102" d="M566.3 329L644 236L535.3 270L566.3 329Z" fill="white" stroke="white" stroke-linejoin="bevel"/>
<path id="Vector_103" d="M509.3 125L448.7 66V149L509.3 125Z" fill="white" stroke="white" stroke-linejoin="bevel"/>
<path id="Vector_104" d="M175.3 196L107.7 173L71.7 284L175.3 196Z" fill="white" stroke="white" stroke-linejoin="bevel"/>
<path id="Vector_105" d="M659 60L509.3 125L532.3 142L659 60Z" fill="white" stroke="white" stroke-linejoin="bevel"/>
<path id="Vector_106" d="M331 0H197.3L229.3 52L331 0Z" fill="white" stroke="white" stroke-linejoin="bevel"/>
<path id="Vector_107" d="M0 201V280L71.7 284L0 201Z" fill="white" stroke="white" stroke-linejoin="bevel"/>
<path id="Vector_108" d="M960 458L831.3 360L838.3 460L960 458Z" fill="white" stroke="white" stroke-linejoin="bevel"/>
</g>
</g>
</g>
<defs>
<clipPath id="clip0_4_4">
<rect width="960" height="540" fill="white"/>
</clipPath>
</defs>
</svg>
